<svg width="30" height="31" viewBox="0 0 30 31" fill="none" xmlns="http://www.w3.org/2000/svg">
<path d="M8.5 0.875C4.01338 0.875 0.375 4.51338 0.375 9V22C0.375 26.4866 4.01338 30.125 8.5 30.125H21.5C25.9866 30.125 29.625 26.4866 29.625 22V9C29.625 4.51338 25.9866 0.875 21.5 0.875H8.5ZM24.75 4.125C25.647 4.125 26.375 4.853 26.375 5.75C26.375 6.647 25.647 7.375 24.75 7.375C23.853 7.375 23.125 6.647 23.125 5.75C23.125 4.853 23.853 4.125 24.75 4.125ZM15 7.375C19.4866 7.375 23.125 11.0134 23.125 15.5C23.125 19.9866 19.4866 23.625 15 23.625C10.5134 23.625 6.875 19.9866 6.875 15.5C6.875 11.0134 10.5134 7.375 15 7.375ZM15 10.625C13.7071 10.625 12.4671 11.1386 11.5529 12.0529C10.6386 12.9671 10.125 14.2071 10.125 15.5C10.125 16.7929 10.6386 18.0329 11.5529 18.9471C12.4671 19.8614 13.7071 20.375 15 20.375C16.2929 20.375 17.5329 19.8614 18.4471 18.9471C19.3614 18.0329 19.875 16.7929 19.875 15.5C19.875 14.2071 19.3614 12.9671 18.4471 12.0529C17.5329 11.1386 16.2929 10.625 15 10.625Z" fill="#F7F7F7"/>
</svg>
