<svg width="30" height="30" viewBox="0 0 30 30" fill="none" xmlns="http://www.w3.org/2000/svg">
<path d="M26.6667 0H3.33333C1.49167 0 0 1.49167 0 3.33333V26.6667C0 28.5083 1.49167 30 3.33333 30H26.6667C28.5083 30 30 28.5083 30 26.6667V3.33333C30 1.49167 28.5083 0 26.6667 0ZM10 23.3333H5.795V11.6667H10V23.3333ZM7.82333 9.52833C6.53833 9.52833 5.68 8.67167 5.68 7.52833C5.68 6.385 6.53667 5.52833 7.965 5.52833C9.25 5.52833 10.1083 6.385 10.1083 7.52833C10.1083 8.67167 9.25167 9.52833 7.82333 9.52833ZM25 23.3333H20.93V16.9567C20.93 15.1933 19.845 14.7867 19.4383 14.7867C19.0317 14.7867 17.675 15.0583 17.675 16.9567C17.675 17.2283 17.675 23.3333 17.675 23.3333H13.47V11.6667H17.675V13.295C18.2167 12.345 19.3017 11.6667 21.3367 11.6667C23.3717 11.6667 25 13.295 25 16.9567V23.3333Z" fill="#F7F7F7"/>
</svg>
