<svg width="93" height="56" viewBox="0 0 93 56" fill="none" xmlns="http://www.w3.org/2000/svg">
<path d="M26.2309 20.3211C26.2309 21.4916 26.3239 22.4281 26.5565 23.2241C26.789 23.786 27.1146 24.5351 27.5331 25.3779C27.7192 25.5652 27.7657 25.8462 27.7657 26.0803C27.7657 26.408 27.5796 26.689 27.1611 27.0167L25.2078 28.3278C24.9287 28.5151 24.6497 28.6087 24.4171 28.6087C24.0916 28.6087 23.8126 28.4214 23.487 28.1405C23.0684 27.6722 22.6964 27.204 22.3708 26.689C22.0918 26.1739 21.7662 25.5652 21.4407 24.8629C19.0223 27.7191 15.9993 29.1706 12.3253 29.1706C9.72086 29.1706 7.67454 28.4214 6.1398 26.9231C4.65157 25.4247 3.86094 23.4114 3.86094 20.8829C3.86094 18.3077 4.79109 16.2007 6.65138 14.5151C8.55817 12.9231 11.0696 12.0803 14.2321 12.0803C15.3017 12.0803 16.2784 12.1739 17.5341 12.3612C18.6037 12.5017 19.8594 12.7358 21.0686 13.0167V10.7692C21.0686 8.38127 20.6036 6.83612 19.6269 5.7592C18.6037 4.77592 16.976 4.35451 14.6041 4.35451C13.4879 4.35451 12.3718 4.49498 11.2556 4.7291C10.0929 5.01003 8.97674 5.33779 7.90707 5.80602C7.39549 5.99331 6.97693 6.13378 6.83741 6.1806C6.60487 6.27425 6.46535 6.27425 6.32583 6.27425C5.90726 6.27425 5.67473 5.99331 5.67473 5.33779V3.79264C5.67473 3.32441 5.72123 2.94983 5.90726 2.71572C6.04678 2.48161 6.32583 2.29431 6.74439 2.15385C7.86057 1.49833 9.11626 1.0301 10.651 0.655518C12.2298 0.23992 13.856 0.0352671 15.4878 0.0468238C19.1618 0.0468238 21.8592 0.889633 23.58 2.57525C25.3008 4.26087 26.1379 6.83612 26.1379 10.2542V20.3211H26.2309ZM13.674 25.097C14.6971 25.097 15.7203 24.9097 16.8365 24.5351C17.9526 24.1605 18.9293 23.4582 19.7664 22.5217C20.278 21.913 20.6501 21.2575 20.9291 20.5084C20.9291 19.7592 21.1616 18.8696 21.1616 17.7926V16.5284C20.2315 16.2007 19.3013 16.2007 18.2782 15.9666C17.3203 15.8612 16.3582 15.7987 15.3947 15.7793C13.3019 15.7793 11.8137 16.2007 10.7905 17.0435C9.76736 17.8863 9.30229 19.0569 9.30229 20.602C9.30229 22.1003 9.62784 23.2241 10.4185 23.9264C11.1626 24.7224 12.2322 25.097 13.674 25.097ZM38.5088 28.4214C38.0586 28.4349 37.6118 28.3386 37.2066 28.1405C37.0671 27.9064 36.8346 27.485 36.6486 26.9231L29.3934 2.85619C29.2074 2.15385 29.1144 1.82609 29.1144 1.59197C29.1144 1.07692 29.3469 0.795987 29.8585 0.795987H32.8815C33.4861 0.795987 33.9046 0.889633 34.0907 1.12375C34.3697 1.31104 34.5557 1.73244 34.7418 2.34114L39.9041 22.9431L44.7408 2.34114C44.8803 1.73244 45.0664 1.31104 45.3454 1.12375C45.5779 0.936456 45.9965 0.795987 46.5081 0.795987H49.066C49.6241 0.795987 50.0426 0.889633 50.2752 1.12375C50.5077 1.31104 50.7402 1.73244 50.8798 2.34114L55.8095 23.2241L61.1114 2.34114C61.2974 1.73244 61.5299 1.31104 61.716 1.12375C61.995 0.936456 62.3671 0.795987 62.9251 0.795987H65.8086C66.3202 0.795987 66.5992 1.07692 66.5992 1.59197C66.5992 1.73244 66.5527 1.91973 66.5062 2.15385C66.5062 2.15385 66.4132 2.52843 66.3202 2.85619L58.8325 26.9231C58.6465 27.5786 58.4604 27.9064 58.1349 28.1405C57.9489 28.3278 57.5303 28.4682 57.0187 28.4682H54.3678C53.7632 28.4682 53.4842 28.3746 53.1121 28.1405C52.7994 27.8067 52.6034 27.3792 52.554 26.9231L47.7638 6.83612L42.9735 26.8763C42.834 27.4849 42.648 27.9064 42.4154 28.1405C42.0314 28.3511 41.5962 28.4485 41.1598 28.4214H38.5088ZM78.2725 29.2642C76.7378 29.2642 75.017 29.0769 73.4823 28.7023C71.9475 28.3278 70.7384 27.9064 69.9477 27.4849C69.5438 27.2894 69.2047 26.9804 68.9711 26.5953C68.8447 26.3328 68.781 26.0442 68.7851 25.7525V24.1605C68.7851 23.505 69.0176 23.2241 69.4827 23.2241H70.0407C70.2268 23.2241 70.5058 23.4582 70.8314 23.5987C71.8545 24.0669 73.0172 24.4415 74.2264 24.6756C75.4821 24.9097 76.7378 25.0502 77.9005 25.0502C79.8538 25.0502 81.3885 24.7224 82.4117 24.0201C83.4813 23.2241 84.0394 22.3344 84.0394 21.0702C84.0394 20.1806 83.7139 19.4783 83.2023 18.8696C82.6442 18.3077 81.5745 17.7458 80.0863 17.2776L75.5751 15.8729C73.3428 15.1237 71.6685 14.0936 70.6453 12.689C69.6469 11.3887 69.1069 9.7907 69.1106 8.14716C69.1106 6.83612 69.3897 5.71238 69.9477 4.7291C70.5058 3.699 71.2499 2.85619 72.0871 2.15385C73.1102 1.45151 74.1334 0.936454 75.3891 0.561872C76.5983 0.18729 77.9005 0 79.2957 0C79.9468 0 80.6444 0.0468237 81.3885 0.140469C82.0396 0.234115 82.6907 0.374582 83.3418 0.468227C83.9929 0.655518 84.551 0.795987 85.1091 0.983278C85.6672 1.17057 86.0392 1.35786 86.4113 1.54515C86.8299 1.77926 87.1554 2.01338 87.3415 2.29432C87.5275 2.57525 87.6205 2.90301 87.6205 3.32441V4.82274C87.6205 5.47826 87.388 5.80602 86.9229 5.80602C86.6903 5.80602 86.2718 5.66555 85.7137 5.43144C83.9929 4.63545 81.9931 4.21405 79.8073 4.21405C78.04 4.21405 76.7378 4.49498 75.6681 5.10368C74.738 5.66555 74.2264 6.60201 74.2264 7.86622C74.2264 8.75585 74.552 9.50502 75.1565 10.0669C75.7611 10.6756 76.9238 11.2375 78.5516 11.7993L82.9698 13.204C85.2021 13.8595 86.7834 14.8896 87.76 16.2007C88.6902 17.4649 89.1552 18.9164 89.1552 20.5552C89.1552 21.8662 88.8762 23.0836 88.3646 24.1605C87.8065 25.1906 87.0624 26.1271 86.0392 26.8763C85.1556 27.6722 83.9929 28.2341 82.6907 28.6555C81.3885 29.0769 79.8073 29.2642 78.2725 29.2642ZM84.0859 44.4348C73.9009 51.9732 59.1116 56 46.5081 56C28.6028 56 12.5578 49.3512 0.419406 38.3478C-0.557246 37.4582 0.326392 36.2876 1.48907 36.99C14.6041 44.6221 30.7421 49.2575 47.4847 49.2575C58.786 49.2575 71.2034 46.9164 82.5977 41.9532C84.3185 41.2508 85.7602 43.1706 84.0859 44.4348ZM88.3646 39.612C87.0159 37.8796 79.7143 38.7692 76.4122 39.1438C75.4356 39.2843 75.2961 38.3947 76.1797 37.7391C81.9931 33.6656 91.5736 34.9298 92.6433 36.194C93.7594 37.5987 92.3642 47.2442 86.9229 51.8328C86.0392 52.5351 85.2486 52.1605 85.6207 51.3177C86.8764 48.1338 89.6203 41.204 88.3646 39.612Z" fill="black"/>
</svg>
