<svg width="82" height="82" viewBox="0 0 82 82" fill="none" xmlns="http://www.w3.org/2000/svg">
<g clip-path="url(#clip0_87_1343)">
<path d="M41 0C18.286 0 0 18.286 0 41C0 63.714 18.286 82 41 82C63.714 82 82 63.714 82 41C82 18.286 63.714 0 41 0ZM50.5667 14.8044C51.0108 14.7908 51.414 15.2691 51.1509 15.7543L40.7506 34.8193C40.698 34.9165 40.6715 35.0256 40.6737 35.1362C40.6759 35.2467 40.7068 35.3547 40.7632 35.4497C40.8197 35.5447 40.8998 35.6235 40.9958 35.6783C41.0918 35.733 41.2004 35.762 41.3109 35.7623H59.2826C59.8634 35.7623 60.1436 36.4695 59.7199 36.8658L28.2183 66.2663C27.6545 66.7924 26.8174 66.051 27.2684 65.4258L42.1788 44.854C42.2471 44.7587 42.2879 44.6465 42.2967 44.5296C42.3055 44.4127 42.282 44.2957 42.2287 44.1912C42.1755 44.0868 42.0945 43.9991 41.9947 43.9376C41.8949 43.8761 41.7801 43.8433 41.6628 43.8427H22.6423C22.5157 43.8424 22.3921 43.8045 22.2871 43.7338C22.1821 43.6632 22.1005 43.5629 22.0525 43.4458C22.0046 43.3287 21.9925 43.2 22.0178 43.076C22.0431 42.952 22.1047 42.8383 22.1947 42.7493L50.143 14.9958C50.2546 14.8782 50.4047 14.8094 50.5667 14.8044Z" fill="black"/>
</g>
<defs>
<clipPath id="clip0_87_1343">
<rect width="82" height="82" fill="white"/>
</clipPath>
</defs>
</svg>
