<svg width="95" height="80" viewBox="0 0 95 80" fill="none" xmlns="http://www.w3.org/2000/svg">
<path d="M92.3492 36.3428C92.0866 36.1678 89.8989 34.4613 85.1733 34.4613C83.9482 34.4613 82.723 34.5926 81.4979 34.8114C80.579 28.6856 75.4596 25.579 75.2408 25.4477L73.9719 24.7039L73.1843 25.8853C72.1342 27.4605 71.3029 29.2545 70.9528 31.0922C70.0777 34.5926 70.6028 37.918 72.3968 40.7621C70.2527 41.9872 66.7523 42.2935 66.0085 42.2935H8.38275C6.89507 42.2935 5.66992 43.5187 5.66992 45.0501C5.66992 50.082 6.45752 55.1138 8.20773 59.8394C10.1767 65.0463 13.1521 68.8968 16.9588 71.2595C21.2468 73.8849 28.2914 75.3725 36.2986 75.3725C39.7553 75.3725 43.3432 75.0663 46.8874 74.4099C51.788 73.5348 56.5136 71.8284 60.8454 69.3343C64.4329 67.2828 67.644 64.6341 70.3403 61.5021C74.9346 56.3827 77.6474 50.5633 79.6164 45.5314H80.4477C85.4358 45.5314 88.5425 43.5187 90.2489 41.8122C91.3866 40.7621 92.2179 39.4932 92.8305 38.0055L93.1805 36.9554L92.3492 36.3428ZM13.7647 40.6746H21.4656C21.8156 40.6746 22.1657 40.3683 22.1657 39.9745V33.0612C22.1657 32.7111 21.8594 32.3611 21.4656 32.3611H13.7647C13.3709 32.3611 13.0646 32.6674 13.0646 33.0612V39.9745C13.1083 40.3683 13.3709 40.6746 13.7647 40.6746ZM24.3972 40.6746H32.0981C32.4482 40.6746 32.7982 40.3683 32.7982 39.9745V33.0612C32.7982 32.7111 32.4919 32.3611 32.0981 32.3611H24.3972C24.0034 32.3611 23.6971 32.6674 23.6971 33.0612V39.9745C23.7409 40.3683 24.0034 40.6746 24.3972 40.6746ZM35.2047 40.6746H42.8619C43.2995 40.6746 43.6058 40.3683 43.6058 39.9745V33.0612C43.6058 32.7111 43.3432 32.3611 42.8619 32.3611H35.2047C34.8547 32.3611 34.5484 32.6674 34.5484 33.0612V39.9745C34.5484 40.3683 34.8109 40.6746 35.2047 40.6746ZM45.881 40.6746H53.6257C53.9758 40.6746 54.2821 40.3683 54.2821 39.9745V33.0612C54.2821 32.7111 54.0195 32.3611 53.6257 32.3611H45.881C45.531 32.3611 45.2247 32.6674 45.2247 33.0612V39.9745C45.2247 40.3683 45.531 40.6746 45.881 40.6746ZM24.3972 30.8734H32.0981C32.4482 30.8734 32.7982 30.4796 32.7982 30.0858V23.2162C32.7982 22.8224 32.4919 22.5161 32.0981 22.5161H24.3972C24.0034 22.5161 23.6971 22.7787 23.6971 23.2162V30.0858C23.7409 30.4796 24.0034 30.8734 24.3972 30.8734ZM35.2047 30.8734H42.8619C43.2995 30.8734 43.6058 30.4796 43.6058 30.0858V23.2162C43.6058 22.8224 43.3432 22.5161 42.8619 22.5161H35.2047C34.8547 22.5161 34.5484 22.7787 34.5484 23.2162V30.0858C34.5484 30.4796 34.8109 30.8734 35.2047 30.8734ZM45.881 30.8734H53.6257C53.9758 30.8734 54.2821 30.4796 54.2821 30.0858V23.2162C54.2821 22.8224 53.9758 22.5161 53.6257 22.5161H45.881C45.531 22.5161 45.2247 22.7787 45.2247 23.2162V30.0858C45.2247 30.4796 45.531 30.8734 45.881 30.8734ZM45.881 20.8972H53.6257C53.9758 20.8972 54.2821 20.5909 54.2821 20.1971V13.3713C54.2821 12.9337 53.9758 12.6274 53.6257 12.6274H45.881C45.531 12.6274 45.2247 12.89 45.2247 13.3713V20.1971C45.2247 20.5472 45.531 20.8972 45.881 20.8972ZM56.6448 40.6746H64.3458C64.7396 40.6746 65.0459 40.3683 65.0459 39.9745V33.0612C65.0459 32.7111 64.7396 32.3611 64.3458 32.3611H56.6448C56.2948 32.3611 55.9885 32.6674 55.9885 33.0612V39.9745C55.9885 40.3683 56.2948 40.6746 56.6448 40.6746Z" fill="black"/>
</svg>
