<svg width="75" height="74" viewBox="0 0 75 74" fill="none" xmlns="http://www.w3.org/2000/svg">
<path d="M67.4083 20.1342C67.4392 20.1958 67.4392 20.2883 67.4392 20.3808V33.6083C67.4392 33.9167 67.2542 34.2867 66.9767 34.4408L55.8458 40.8542V53.5267C55.8458 53.8658 55.6917 54.1742 55.3833 54.3592L32.1967 67.71C32.135 67.7408 32.0733 67.8333 32.0117 67.8333H31.3333C31.3333 67.8333 31.3333 67.7408 31.21 67.71L8.02334 54.3592C7.88125 54.2718 7.76405 54.1493 7.68305 54.0035C7.60204 53.8577 7.55995 53.6935 7.56084 53.5267V13.875C7.56084 13.7208 7.56084 13.6283 7.59167 13.5667C7.59167 13.5358 7.6225 13.505 7.6225 13.4742C7.6225 13.4125 7.65334 13.3817 7.68417 13.32C7.68417 13.2892 7.715 13.2583 7.74583 13.2275L7.83834 13.135L7.93084 13.0425C7.96167 13.0117 7.9925 12.9808 8.02334 12.9808L19.6167 6.29001C19.925 6.16668 20.295 6.16668 20.5417 6.29001L32.1967 12.9808C32.2275 13.0117 32.2583 13.0117 32.2892 13.0425L32.3817 13.135L32.4742 13.2275C32.505 13.2583 32.5358 13.2892 32.5358 13.32C32.5667 13.3817 32.5975 13.4125 32.5975 13.4742C32.5975 13.505 32.6283 13.5358 32.6283 13.5667C32.6592 13.6592 32.6592 13.7208 32.6592 13.875V38.5417L42.3408 33.0533V20.3808C42.3408 20.2883 42.3408 20.1958 42.3717 20.1342L42.4025 20.0417C42.4025 20.0417 42.4333 19.9492 42.4642 19.8875C42.4642 19.8567 42.495 19.8258 42.5258 19.795L42.6183 19.7025L42.7108 19.61C42.7417 19.5792 42.7725 19.5483 42.8033 19.5483L54.4583 12.8575C54.705 12.6725 55.075 12.6725 55.3833 12.8575L66.9767 19.5483C67.0075 19.5483 67.0383 19.5792 67.0692 19.61L67.1617 19.7025L67.2542 19.795C67.285 19.8258 67.285 19.8567 67.3158 19.8875C67.3467 19.9492 67.3467 20.0417 67.3775 20.0417C67.4083 20.0417 67.4083 20.0417 67.4083 20.1342ZM65.5275 33.0533V22.0458L55.8458 27.5958V38.5417L65.5275 33.0533ZM53.9342 52.9717V41.9333L32.6592 54.0817V65.2125L53.9342 52.9717ZM9.4725 15.4167V52.9717L30.7475 65.2125V54.0817L19.6475 47.7917H19.6167C19.5858 47.7917 19.555 47.7917 19.5242 47.6992C19.4933 47.6992 19.4625 47.6683 19.4317 47.6375L19.3392 47.545C19.3083 47.5142 19.3083 47.4833 19.2775 47.4525C19.2467 47.3908 19.2467 47.36 19.2158 47.3292C19.2158 47.2675 19.185 47.2367 19.185 47.2058C19.1542 47.175 19.1542 47.1133 19.1542 47.0825V21.0283L9.4725 15.4167ZM20.11 8.26334L10.4592 13.875L20.11 19.3633L29.7917 13.875L20.11 8.26334ZM30.7475 39.7133V15.4167L21.0658 21.0283V45.2942L30.7475 39.7133ZM54.89 14.8L45.2083 20.3808L54.89 25.9308L64.5408 20.3808L54.89 14.8ZM53.9342 27.5958L44.2525 22.0458V33.0533L53.9342 38.5417V27.5958ZM31.7033 52.4167L52.9167 40.2683L43.2967 34.7183L22.0833 46.9592L31.7033 52.4167Z" fill="black"/>
</svg>
