<svg width="83" height="82" viewBox="0 0 83 82" fill="none" xmlns="http://www.w3.org/2000/svg">
<g clip-path="url(#clip0_8_2759)">
<path d="M48.7809 0.160645C48.1898 0.160645 47.6398 0.287061 47.1307 0.457895C48.2103 1.17539 48.8048 2.13206 49.0987 3.21173C49.1226 3.35864 49.1636 3.46456 49.1841 3.61148C49.2061 3.7381 49.2209 3.86585 49.2285 3.99414C49.3105 5.85623 48.7399 6.09198 48.3402 7.19214C47.7252 8.61006 47.896 10.1339 48.634 11.3605C48.7006 11.5254 48.7854 11.6824 48.8868 11.8286C48.0839 6.47123 52.5529 5.66831 53.3763 3.99414C53.4413 2.53181 52.2352 1.55806 51.2819 0.881561C50.5328 0.410844 49.6656 0.162065 48.7809 0.164061V0.160645ZM55.5152 1.36673C55.4332 1.85531 55.4947 1.72889 55.4742 1.98173C55.4537 2.15256 55.4537 2.36439 55.4332 2.53181C55.3888 2.70264 55.3478 2.87348 55.2828 3.04089C55.2396 3.21173 55.1826 3.38142 55.112 3.54998L54.8831 4.03514C54.8148 4.12056 54.7772 4.20598 54.7123 4.29139L54.5858 4.47931C54.4854 4.62459 54.3794 4.76591 54.2681 4.90298C54.1417 5.03281 54.0358 5.17973 53.8854 5.28564V5.30614C53.759 5.41206 53.6326 5.53848 53.4823 5.64781C53.0381 5.98606 52.5324 6.23889 52.0643 6.55664C51.9174 6.65914 51.7671 6.74798 51.6407 6.87439C51.4978 6.97661 51.363 7.0897 51.2375 7.21264C51.0906 7.33906 50.9847 7.46548 50.8583 7.61581C50.7523 7.74223 50.6259 7.88914 50.5405 8.03948C50.4357 8.1836 50.3365 8.33177 50.2433 8.48364C50.1578 8.65448 50.0963 8.80139 50.0109 8.96881C49.946 9.13964 49.8845 9.28656 49.8401 9.45739C49.784 9.63188 49.735 9.80855 49.6932 9.98698C49.6727 10.0724 49.6727 10.1783 49.6522 10.2603C49.6283 10.3457 49.6283 10.4311 49.6078 10.5166C49.6078 10.6874 49.5873 10.8753 49.5873 11.0461C49.5827 11.1714 49.5895 11.2978 49.6078 11.4254C49.6078 11.594 49.6294 11.7705 49.6727 11.955C49.6955 12.1258 49.7296 12.2966 49.7752 12.4675C49.8435 12.6349 49.8845 12.8023 49.946 12.9731C49.9904 13.0756 50.0519 13.185 50.0963 13.2704L45.2242 11.3844C44.4008 11.1521 43.5944 10.9402 42.7676 10.7489L41.4351 10.4311C40.1595 10.1783 38.8749 9.98812 37.5811 9.86056C37.5367 9.86056 37.5162 9.84006 37.4752 9.84006C35.2929 9.62003 33.0956 9.59144 30.9083 9.75464C29.6168 9.84006 28.3253 10.0075 27.0338 10.2193C26.0743 10.3861 25.1206 10.5843 24.1741 10.8138L23.2208 11.0666C22.9065 11.1931 22.6058 11.34 22.312 11.4698L21.6116 11.7876C21.5706 11.8081 21.5296 11.8081 21.5091 11.8286C21.2938 11.9345 21.1059 12.0199 20.9146 12.1258C20.64 12.2483 20.371 12.3828 20.1083 12.529C19.9613 12.5905 19.8144 12.6759 19.6846 12.7408L19.4967 12.8433C19.3031 12.9526 19.1186 13.0597 18.9432 13.1645C18.7701 13.263 18.6014 13.369 18.4375 13.4822C18.2872 13.5847 18.1403 13.6701 18.0138 13.7761C17.9933 13.8 17.9694 13.8 17.9489 13.8205C17.8225 13.9059 17.6756 14.0118 17.5458 14.1177L17.5048 14.1587L17.187 14.4116C17.146 14.4355 17.1016 14.4765 17.0606 14.497C16.9547 14.5824 16.8488 14.6883 16.7428 14.7703C16.7223 14.8147 16.6779 14.8386 16.6574 14.8557C16.531 14.9856 16.4046 15.0915 16.2782 15.2179C16.2543 15.2179 16.2543 15.2384 16.2338 15.2589C16.1028 15.3747 15.9762 15.4955 15.8545 15.6211C15.8306 15.6416 15.8306 15.6621 15.8101 15.6621C15.7003 15.7723 15.5943 15.8863 15.4923 16.0037C15.4513 16.0447 15.3898 16.0857 15.3454 16.1267C15.2347 16.2634 15.1137 16.3913 14.9833 16.5094C14.9628 16.5504 14.9218 16.5743 14.9013 16.6119C14.7304 16.7827 14.5835 16.9536 14.4127 17.1244L14.3512 17.1859C14.0095 17.5481 13.6508 17.9068 13.2681 18.2246C12.8854 18.5662 12.4902 18.8771 12.0825 19.1573C11.2726 19.7349 10.3991 20.2176 9.47901 20.5957C9.03484 20.7871 8.56676 20.9579 8.10209 21.1048C7.21376 21.2961 6.30151 21.6549 5.51909 21.7198C5.34826 21.7198 5.16034 21.7608 4.98951 21.7813L4.45993 21.9077L3.95084 22.0991C3.78001 22.1674 3.61146 22.2448 3.44518 22.3314C3.29484 22.4373 3.12743 22.5227 2.97709 22.6286C2.82624 22.7376 2.68455 22.8588 2.55343 22.9908C2.40651 23.0933 2.25618 23.2436 2.12976 23.3701C2.00334 23.517 1.87693 23.6434 1.77101 23.7937C1.66509 23.9646 1.53868 24.1115 1.45326 24.2823C1.34086 24.4355 1.24143 24.5978 1.15601 24.7675C1.07059 24.9588 0.985178 25.1296 0.923678 25.3176C0.8599 25.4929 0.796122 25.6763 0.732344 25.8676C0.691344 26.0385 0.646928 26.2093 0.629844 26.3801C0.629844 26.3972 0.605928 26.4211 0.605928 26.4416C0.564928 26.633 0.564928 26.8858 0.541011 27.0122C0.520511 27.1626 0.500011 27.2856 0.500011 27.4359C0.496499 27.8043 0.583308 28.168 0.752844 28.4951V28.5156C0.821178 28.6431 0.899761 28.7707 0.988594 28.8982C1.06832 29.0258 1.15943 29.1522 1.26193 29.2775C1.36784 29.3834 1.49426 29.5132 1.62409 29.6191C1.74849 29.742 1.88214 29.855 2.02384 29.9574C2.53293 30.4016 2.65934 30.5485 3.31534 30.8867C3.42126 30.9516 3.52718 30.9926 3.65701 31.0576C3.67751 31.0576 3.69801 31.0781 3.71851 31.0781C3.71851 31.1225 3.71851 31.143 3.73901 31.184C3.78938 31.533 3.88114 31.8748 4.01234 32.2021C4.08068 32.3286 4.12168 32.455 4.18318 32.5814C4.20596 32.6269 4.22873 32.6623 4.25151 32.6873C4.33351 32.8581 4.41893 33.0051 4.50093 33.1554L4.81868 33.5996C4.92459 33.726 5.05443 33.8729 5.18084 34.0027C5.30726 34.1326 5.43368 34.2351 5.58401 34.3615C5.58401 34.3615 5.60451 34.382 5.62501 34.382C5.75029 34.4913 5.87784 34.5904 6.00768 34.6792C6.15513 34.7824 6.3105 34.8738 6.47234 34.9526C6.61926 35.038 6.79009 35.1234 6.95751 35.1883C7.09536 35.2465 7.23689 35.2956 7.38118 35.3352C7.40509 35.3557 7.42559 35.3557 7.46659 35.3762C7.55201 35.4001 7.65793 35.4206 7.73993 35.4411C7.67843 36.5857 7.65793 37.662 7.82876 38.0446C8.01668 38.4683 8.94943 37.1768 9.87876 35.694C9.75576 37.1563 9.67034 38.8715 9.87876 39.3806C10.1145 39.9101 11.3821 38.2565 12.4857 36.4354C27.5019 32.9641 41.2028 43.3371 42.6412 57.9946C42.3678 55.7054 39.5491 54.4378 38.2576 54.7556C37.6221 56.3204 36.5424 58.3328 34.8068 59.5833C34.9537 58.1825 34.8922 56.7475 34.5949 55.3466C34.1216 57.2969 33.2245 59.119 31.9675 60.6835C29.9585 60.8304 27.9461 59.8566 26.8869 58.3943C26.8015 58.3328 26.781 58.2064 26.7161 58.121C26.65 57.9729 26.5931 57.8249 26.5453 57.6768C26.4832 57.5352 26.4407 57.3857 26.4188 57.2326C26.4006 57.0869 26.3938 56.9308 26.3983 56.7646V56.4468C26.4237 56.2966 26.4591 56.1482 26.5043 56.0026C26.543 55.8569 26.5931 55.7088 26.6546 55.5585C26.7366 55.4116 26.8015 55.2612 26.9074 55.1143C27.2662 54.0961 27.2662 53.2693 26.6102 52.7841C26.4807 52.7046 26.346 52.6339 26.207 52.5723C26.125 52.5518 26.0191 52.5108 25.9337 52.4869L25.7628 52.4254C25.6173 52.3802 25.4689 52.3448 25.3187 52.3195C25.1741 52.2784 25.0248 52.2566 24.8745 52.2546C24.7207 52.2303 24.5655 52.2166 24.4098 52.2136C24.3039 52.2136 24.198 52.2341 24.0921 52.2341C23.9338 52.2339 23.7763 52.2558 23.624 52.299C23.4782 52.3172 23.3302 52.3445 23.1798 52.381C23.0285 52.4209 22.8801 52.4711 22.7357 52.5313C22.5888 52.5928 22.4623 52.6577 22.312 52.7226C22.1856 52.7841 22.0592 52.8696 21.9088 52.9345C16.9752 56.153 19.9203 63.6901 23.2858 65.8734C22.0148 66.1057 20.7233 66.3791 20.3645 66.6558L20.3201 66.6968C21.2312 67.2435 22.1845 67.7172 23.1798 68.1181C24.5363 68.5623 25.9747 68.9621 26.6102 69.1329V69.1534C28.3648 69.5135 30.159 69.6422 31.947 69.536C41.3292 68.8801 49.0167 61.7426 50.4141 52.34L50.5405 52.8901C50.6054 53.2727 50.6874 53.6759 50.7318 54.0756V54.0961C50.7683 54.2898 50.7968 54.4743 50.8173 54.6496V54.7316C50.84 54.9253 50.8537 55.1097 50.8583 55.2851C50.881 55.5175 50.8947 55.7498 50.8993 55.9821V56.3238C50.8993 56.4263 50.9232 56.5527 50.9232 56.6586C50.9232 56.7885 50.8993 56.9149 50.8993 57.0413V57.3386C50.8993 57.4855 50.8788 57.6119 50.8788 57.7622C50.8833 57.8442 50.8765 57.9353 50.8583 58.0356C50.8583 58.1859 50.8378 58.3328 50.8378 58.5036C50.8218 58.5651 50.815 58.6278 50.8173 58.6916L50.7489 59.1801C50.7512 59.2439 50.7455 59.3077 50.7318 59.3715C50.7079 59.5833 50.6669 59.7746 50.6464 59.9865V60.0275L50.52 60.622V60.6835L50.3936 61.2541C50.3936 61.278 50.3697 61.3224 50.3697 61.3395C50.329 61.5328 50.28 61.7244 50.2228 61.9135V61.975C50.1544 62.1823 50.0975 62.3804 50.0519 62.5695C50.0337 62.5922 50.0269 62.6059 50.0314 62.6105L49.8401 63.246C49.7581 63.4578 49.6932 63.6491 49.6078 63.861C49.5223 64.0728 49.4608 64.2846 49.3754 64.476C49.29 64.6878 49.2046 64.8757 49.1226 65.091H49.0987C49.0167 65.2789 48.9278 65.4907 48.8253 65.6821L48.7604 65.829C48.7399 65.8495 48.7399 65.8734 48.7194 65.8939C47.3154 68.6954 45.2775 71.1311 42.7676 73.0074C42.5968 73.1133 42.4293 73.2431 42.2585 73.3696C42.2175 73.4106 42.156 73.4311 42.1116 73.4721C41.9597 73.5834 41.8047 73.6905 41.6469 73.7932L41.7084 73.9196H41.7323L42.6207 73.7932H42.6412C43.1901 73.7044 43.7402 73.6053 44.2914 73.496C44.4418 73.4755 44.6092 73.4311 44.7595 73.3901L45.0568 73.3251C45.2037 73.3046 45.3506 73.2636 45.5009 73.2431C45.6273 73.1987 45.7538 73.1748 45.8802 73.1372C47.9985 72.6247 50.0519 71.9277 52.0233 71.1043C48.6226 75.7429 44.0953 79.4376 38.8692 81.8395C41.3087 81.6686 43.7413 81.2689 46.092 80.589C54.6007 78.0885 61.7871 72.3463 66.1034 64.599C65.2307 69.5025 63.2859 74.1529 60.4078 78.2178C62.4596 76.8631 64.3559 75.2864 66.0624 73.5165C70.8069 68.5708 73.9195 62.2884 74.9799 55.5175C75.6974 58.8658 75.9093 62.3166 75.5949 65.7231C90.8811 44.3996 76.8625 22.2904 70.9961 16.4684C70.9756 16.424 70.9551 16.4035 70.9551 16.3625C70.9346 16.383 70.9346 16.383 70.9346 16.4035C70.9346 16.383 70.9346 16.383 70.9107 16.3625C70.9061 16.613 70.8925 16.867 70.8697 17.1244C70.8115 17.5988 70.7408 18.0716 70.6579 18.5423C70.5554 19.007 70.4255 19.4751 70.2991 19.9431C70.1488 20.3873 69.9813 20.852 69.7866 21.2961C69.5941 21.7353 69.3832 22.1662 69.1545 22.5876C68.6779 23.4154 68.1328 24.2017 67.5248 24.9383C67.207 25.3176 66.8688 25.6558 66.5271 25.9975C66.3274 26.1801 66.1223 26.3567 65.9121 26.5271L65.4269 26.9507C65.0465 27.2459 64.6508 27.5207 64.2413 27.7741C63.8375 28.0363 63.4201 28.277 62.9909 28.4951C62.5467 28.7023 62.1025 28.9005 61.6583 29.0896C60.7534 29.4329 59.8175 29.6881 58.8635 29.8515C58.3749 29.9369 57.8898 29.9779 57.4217 30.0223C57.0839 30.046 56.7455 30.0597 56.4069 30.0633C55.9253 30.0552 55.4443 30.0267 54.9651 29.9779C54.4812 29.9414 54.0005 29.8706 53.5267 29.7661C53.0461 29.6804 52.5723 29.5605 52.1088 29.4073H52.0848C52.5529 29.3629 53.0176 29.3219 53.4857 29.2365C54.4392 29.071 55.375 28.8159 56.2805 28.4746C56.7452 28.3037 57.1893 28.0919 57.613 27.8801C58.0572 27.6682 58.4603 27.4359 58.884 27.1831C59.2895 26.912 59.6847 26.6296 60.0696 26.3357C60.4523 26.0396 60.8122 25.7219 61.1493 25.3825C61.508 25.0647 61.8258 24.706 62.1435 24.3438C62.4624 23.9634 62.7585 23.583 63.0318 23.2026C63.0763 23.1377 63.1207 23.0523 63.1617 22.9908C63.3781 22.6491 63.5831 22.3098 63.7767 21.9726C64.243 21.1296 64.6252 20.2426 64.9178 19.3247C65.0682 18.8806 65.1741 18.4159 65.28 17.9478C65.3654 17.4626 65.4508 16.998 65.4918 16.5299C65.5328 16.0447 65.5773 15.5561 65.5773 15.0915C65.5773 14.7498 65.5534 14.4116 65.5329 14.0733C65.49 13.5991 65.4331 13.1262 65.362 12.6554C65.2774 12.1785 65.1725 11.7054 65.0477 11.2375C64.8973 10.7933 64.7504 10.3252 64.5796 9.88106C64.4088 9.43689 64.2004 8.99273 63.9885 8.56906C63.7562 8.14312 63.5159 7.72628 63.2676 7.31856C62.9969 6.92293 62.7143 6.53554 62.4203 6.15689C62.1059 5.79245 61.7813 5.43142 61.4465 5.07381C61.2681 4.89219 61.0847 4.7156 60.8964 4.54423C59.9352 3.79939 58.9535 3.10809 57.9513 2.47031C57.8151 2.38998 57.6735 2.3192 57.5276 2.25848C56.8997 1.87333 56.2228 1.57111 55.5152 1.36673Z" fill="black"/>
</g>
<defs>
<clipPath id="clip0_8_2759">
<rect width="82" height="82" fill="white" transform="translate(0.5)"/>
</clipPath>
</defs>
</svg>
