<svg width="83" height="82" viewBox="0 0 83 82" fill="none" xmlns="http://www.w3.org/2000/svg">
<g clip-path="url(#clip0_8_2685)">
<path d="M61.3568 76.8879C61.0519 77.0493 61.0775 77.1005 61.3696 76.9519C61.4597 76.9152 61.5422 76.8622 61.6131 76.7956C61.6131 76.7418 61.6131 76.7418 61.3568 76.8879ZM61.9718 76.5547C61.8258 76.6752 61.8257 76.6752 62 76.5957C62.0644 76.5656 62.1233 76.5249 62.1743 76.4753C62.1743 76.4061 62.1333 76.4215 61.9718 76.5547ZM62.3716 76.3139C62.2255 76.4343 62.2255 76.4343 62.3997 76.3549C62.4644 76.3241 62.5233 76.2825 62.574 76.2319C62.574 76.1678 62.533 76.1806 62.3716 76.3139ZM62.7764 76.0755C62.6304 76.196 62.6304 76.196 62.7995 76.114C62.8943 76.0627 62.9737 76.0089 62.9737 75.9935C62.9737 75.9295 62.9327 75.9423 62.7764 76.0755ZM63.3223 75.7142C63.0429 75.9013 62.9456 76.0217 63.2018 75.8885C63.3735 75.7834 63.6656 75.5528 63.6144 75.5528C63.5042 75.5938 63.4119 75.663 63.3197 75.7142H63.3223ZM38.8171 0.0282339C38.63 0.0410464 38.0688 0.0922964 37.5768 0.133296C25.9226 1.18905 15.0191 7.46205 8.10806 17.1252C4.28882 22.4251 1.80626 28.5691 0.871562 35.0345C0.541 37.2895 0.5 37.9558 0.5 41.0129C0.5 44.0674 0.541 44.7234 0.871562 46.9784C3.1035 62.3815 14.0608 75.3119 28.913 80.1038C31.5857 80.9571 34.3865 81.5465 37.5768 81.9078C38.8171 82.041 44.1804 82.041 45.4206 81.9078C50.9351 81.2928 55.5912 79.9321 60.1986 77.5823C60.9058 77.2235 61.0391 77.1287 60.9442 77.0493C58.6967 74.0783 56.4681 71.0929 54.2587 68.0934L47.7064 59.245L39.4987 47.086C36.7685 43.0149 34.0104 38.9626 31.2244 34.9295C31.1962 34.9295 31.1603 40.3338 31.1449 46.9245C31.1167 58.4686 31.1167 58.9375 30.9707 59.204C30.8306 59.526 30.5797 59.787 30.2634 59.9395C30.0098 60.0599 29.7817 60.0855 28.5696 60.0855H27.1833L26.822 59.86C26.5957 59.7149 26.4118 59.5124 26.289 59.2732L26.1147 58.9119L26.1276 42.8425L26.1558 26.773L26.4094 26.4527C26.5715 26.2558 26.7709 26.0929 26.9963 25.9735C27.3319 25.8121 27.4652 25.7865 28.8515 25.7865C30.4787 25.7865 30.7477 25.8505 31.1757 26.3195C34.5006 31.2648 37.7969 36.2293 41.0644 41.2127C46.3918 49.2897 53.6642 60.311 57.2389 65.7179L63.7399 75.5554L64.0603 75.3427C67.1846 73.2665 70.0158 70.78 72.4781 67.9499C77.6429 62.0384 80.9943 54.7635 82.131 46.9963C82.4616 44.7413 82.5026 44.0725 82.5026 41.018C82.5026 37.9609 82.4616 37.3075 82.131 35.0525C79.8991 19.6493 68.9418 6.71892 54.0896 1.92448C51.3138 1.04534 48.4568 0.446992 45.5616 0.138421C44.7851 0.0589839 39.4859 -0.0358286 38.8196 0.0333589L38.8171 0.0282339ZM55.5938 24.8255C55.7844 24.9192 55.9544 25.0499 56.0939 25.2101C56.2334 25.3702 56.3395 25.5566 56.4061 25.7583C56.4753 25.9735 56.4881 30.4297 56.4753 40.467L56.4471 54.8785L53.9128 50.9835L51.3631 47.086V36.6233C51.3631 29.8404 51.3913 26.0376 51.4271 25.8505C51.5526 25.4216 51.8403 25.0585 52.2292 24.8384C52.5469 24.6769 52.6699 24.6641 53.9384 24.6641C55.1248 24.6641 55.3273 24.6769 55.5938 24.8255Z" fill="black"/>
</g>
<defs>
<clipPath id="clip0_8_2685">
<rect width="82" height="82" fill="white" transform="translate(0.5)"/>
</clipPath>
</defs>
</svg>
