<svg width="81" height="80" viewBox="0 0 81 80" fill="none" xmlns="http://www.w3.org/2000/svg">
<path d="M40.5 6.16663C39.6 6.16663 38.6667 6.39996 37.9 6.83329L13.1 21.1666C11.5 22.1 10.5 23.8333 10.5 25.7V54.3C10.5 56.1666 11.5 57.9 13.1 58.8333L19.6 62.5666C22.7667 64.1 23.8333 64.1333 25.3 64.1333C29.9667 64.1333 32.6667 61.3 32.6667 56.3666V28.1333C32.6667 27.7333 32.3333 27.4 31.9333 27.4H28.8333C28.4 27.4 28.0667 27.7333 28.0667 28.1333V56.3666C28.0667 58.5666 25.8 60.7333 22.1667 58.9L15.3333 55C15.2211 54.9207 15.1293 54.8159 15.0656 54.6942C15.0018 54.5725 14.9679 54.4374 14.9667 54.3V25.7C14.9667 25.4 15.1 25.1333 15.3333 25L40.1333 10.7C40.3333 10.5666 40.6667 10.5666 40.8667 10.7L65.6667 25C65.9 25.1333 66.0333 25.4 66.0333 25.7V54.3C66.0333 54.5666 65.9 54.8333 65.6667 55L40.8667 69.3C40.6667 69.4333 40.3333 69.4333 40.1 69.3L33.8333 65.5C33.5667 65.4 33.3 65.3666 33.1333 65.4666C31.3667 66.4666 31.0333 66.6666 29.4 67.1666C29 67.3 28.3667 67.5333 29.6333 68.2333L37.9 73.1333C38.7 73.6 39.5667 73.8333 40.5 73.8333C41.4333 73.8333 42.3 73.6 43.1 73.1333L67.9 58.8333C69.5 57.9 70.5 56.1666 70.5 54.3V25.7C70.5 23.8333 69.5 22.1 67.9 21.1666L43.1 6.83329C42.3333 6.39996 41.4333 6.16663 40.5 6.16663ZM47.1667 26.6666C40.1 26.6666 35.8667 29.6333 35.8667 34.6333C35.8667 40 40.0667 41.5666 46.8667 42.2333C54.9667 43.0333 55.6 44.2333 55.6 45.8333C55.6 48.6 53.3667 49.7666 48.1667 49.7666C41.5667 49.7666 40.1667 48.1333 39.6667 44.8666C39.6316 44.6978 39.5396 44.5461 39.4061 44.4369C39.2727 44.3277 39.1058 44.2676 38.9333 44.2666H35.7333C35.3333 44.2666 35.0333 44.5666 35.0333 45C35.0333 49.1333 37.3 54.1333 48.1667 54.1333C56 54.1333 60.5 51.0333 60.5 45.6333C60.5 40.2666 56.9 38.8666 49.2667 37.8333C41.5667 36.8333 40.8 36.3 40.8 34.5C40.8 33 41.4667 31 47.1667 31C52.1667 31 54.1333 32.1 54.9 35.5333C54.9667 35.8666 55.2667 36.1 55.6 36.1H58.8333C59 36.1 59.2 36.0333 59.3333 35.8666C59.4667 35.7333 59.5667 35.5333 59.5 35.3333C59.0333 29.4 55.1 26.6666 47.1667 26.6666Z" fill="black"/>
</svg>
