<svg width="83" height="82" viewBox="0 0 83 82" fill="none" xmlns="http://www.w3.org/2000/svg">
<path d="M52.98 38.7109L49.2217 37.8567L52.16 42.025V54.9742L62.1708 46.6375V32.4584L57.5583 34.0984L52.98 38.7109ZM29.61 38.7109L24.9975 34.0984L20.4192 32.4584V46.6375L30.43 54.9742V42.025L33.3683 37.8567L29.61 38.7109Z" fill="black"/>
<path d="M45.4633 39.1208H37.1267L35.0425 37.8566L31.6942 42.8791V61.6708L34.1883 65.395L37.1267 68.3333H45.4633L48.4017 65.395L50.8958 61.6708V42.8791L47.5475 37.8566L45.4633 39.1208ZM52.16 62.9008L57.5583 57.4683V52.07L52.16 56.6483V62.9008ZM24.9975 57.4683L30.43 62.9008V56.6483L24.9975 52.07V57.4683ZM38.3567 37.4466H40.475V13.6666H35.8625L32.5483 21.5591L17.4808 20.3291L20.0092 30.7841L37.9467 37.4466H38.3567ZM50.0417 21.5591L46.7275 13.6666H42.115V37.5833H44.9167L62.8542 30.75L65.4167 20.5L50.0417 21.5591Z" fill="black"/>
<path d="M59.6767 19.5091L53.8 13.6666H47.9575L50.8958 20.3291L59.6767 19.5091ZM34.5983 13.6666H28.7558L22.9133 19.5091L31.6942 20.3291L34.5983 13.6666Z" fill="black"/>
</svg>
