<svg width="75" height="74" viewBox="0 0 75 74" fill="none" xmlns="http://www.w3.org/2000/svg">
<path d="M34.7342 32.1838C33.7911 32.7284 33.0306 33.5404 32.549 34.5172C32.0673 35.494 31.8861 36.5917 32.0282 37.6714C32.1703 38.7512 32.6295 39.7646 33.3475 40.5834C34.0656 41.4023 35.0103 41.9898 36.0622 42.2718C37.1142 42.5537 38.2261 42.5174 39.2575 42.1675C40.2888 41.8175 41.1932 41.1696 41.8563 40.3057C42.5194 39.4417 42.9115 38.4006 42.9829 37.3138C43.0543 36.2271 42.8019 35.1436 42.2576 34.2003C41.8961 33.5738 41.4147 33.0247 40.8409 32.5843C40.2672 32.1439 39.6123 31.8209 38.9136 31.6336C38.215 31.4464 37.4863 31.3986 36.7692 31.493C36.0521 31.5874 35.3606 31.8221 34.7342 32.1838ZM59.4163 38.1593C59.0546 37.7461 58.6732 37.3319 58.2724 36.9167C58.552 36.6207 58.8233 36.3257 59.0864 36.0318C64.0352 30.4695 66.1257 24.8886 64.1893 21.537C62.3332 18.3211 56.8109 17.3622 49.895 18.7065C49.2146 18.8402 48.5373 18.9902 47.8631 19.1567C47.7336 18.7127 47.5969 18.2708 47.453 17.8309C45.1066 10.7608 41.3172 6.16354 37.4445 6.16663C33.7322 6.16663 30.1432 10.474 27.8522 17.1371C27.6261 17.7949 27.4175 18.4568 27.2263 19.1228C26.7762 19.0118 26.3239 18.909 25.8697 18.8145C18.5745 17.319 12.7007 18.3057 10.7675 21.6635C8.91441 24.8794 10.8507 30.1426 15.4788 35.4521C15.9393 35.9763 16.4121 36.4902 16.8972 36.9938C16.3237 37.5796 15.7841 38.1685 15.2784 38.7544C10.7613 43.9899 8.936 49.1637 10.786 52.3673C12.6977 55.6788 18.4882 56.761 25.5397 55.3735C26.1112 55.2605 26.6796 55.133 27.2448 54.9912C27.4504 55.7127 27.6775 56.4291 27.9262 57.1403C30.2079 63.6677 33.7753 67.8333 37.4753 67.8333C41.2987 67.8333 45.1282 63.3532 47.4499 56.5514C47.6349 56.0149 47.8045 55.4568 47.971 54.8833C48.7007 55.0642 49.4356 55.2245 50.1756 55.3643C56.9682 56.65 62.3609 55.6418 64.2078 52.4351C66.1164 49.1205 64.1462 43.5644 59.4163 38.1593ZM13.0492 22.977C14.2393 20.9111 19.0401 20.1033 25.3393 21.3983C25.7422 21.4805 26.1523 21.573 26.5696 21.6758C25.9538 24.3964 25.5191 27.1548 25.2684 29.933C22.9968 31.5303 20.8308 33.273 18.7842 35.15C18.334 34.6833 17.8951 34.2054 17.4676 33.7162C13.4993 29.1714 11.933 24.9164 13.0492 22.977ZM25.0341 40.6383C23.4616 39.445 21.997 38.224 20.6681 36.9969C21.9939 35.7759 23.4585 34.561 25.031 33.3709C24.9734 34.5816 24.9457 35.7934 24.9477 37.0061C24.9477 38.2189 24.9765 39.4296 25.0341 40.6383ZM25.0341 52.7866C22.3615 53.3818 19.6022 53.4801 16.8941 53.0765C16.1517 53.0184 15.429 52.8087 14.7709 52.4602C14.1127 52.1118 13.533 51.6321 13.0677 51.0507C11.9422 49.1082 13.4099 44.9519 17.2733 40.4749C17.7584 39.9137 18.26 39.3669 18.778 38.8345C20.8256 40.7231 22.9959 42.4741 25.2746 44.0762C25.5278 46.8894 25.9666 49.6828 26.5881 52.4382C26.0742 52.5677 25.5552 52.6849 25.031 52.7897L25.0341 52.7866ZM46.9257 27.9997C45.8918 27.3481 44.8455 26.7181 43.7869 26.1096C42.7427 25.5094 41.6872 24.9308 40.6203 24.3737C42.3742 23.6329 44.1637 22.9795 45.9822 22.4158C46.3904 24.2601 46.7053 26.1237 46.9257 27.9997ZM30.3467 17.9912C32.3077 12.287 35.2122 8.80288 37.4507 8.80288C39.8341 8.79979 42.9297 12.5584 44.9555 18.6603C45.0871 19.0591 45.2104 19.4599 45.3255 19.8628C42.6662 20.6869 40.0644 21.6861 37.537 22.8536C35.018 21.6718 32.4221 20.6612 29.767 19.8289C29.9458 19.2122 30.1391 18.5997 30.3467 17.9912ZM29.1133 22.3819C30.9235 22.9516 32.7038 23.6123 34.4475 24.3614C32.2851 25.4755 30.1802 26.6893 28.1328 28.0028C28.3795 26.0356 28.7094 24.1517 29.1133 22.3819ZM28.1359 46.0002C29.1575 46.6559 30.1946 47.286 31.247 47.8903C32.32 48.507 33.4064 49.099 34.5061 49.6663C32.7499 50.4413 30.9551 51.1257 29.1287 51.7167C28.7044 49.8297 28.3731 47.9229 28.1359 46.0033V46.0002ZM44.9586 55.7004C44.1383 58.3121 42.8443 60.7505 41.1414 62.8938C40.721 63.5082 40.179 64.0299 39.5489 64.4266C38.9189 64.8233 38.2142 65.0865 37.4784 65.2001C35.2307 65.2001 32.3662 61.8547 30.4176 56.2708C30.1874 55.611 29.9756 54.945 29.7824 54.2728C32.4501 53.4123 35.0564 52.3718 37.5832 51.1586C40.1321 52.3356 42.7555 53.344 45.4365 54.1772C45.2885 54.689 45.1292 55.1968 44.9586 55.7004ZM46.0747 51.618C44.2325 51.0427 42.4194 50.378 40.6419 49.6262C41.6882 49.0774 42.7417 48.4967 43.8023 47.8841C44.8918 47.2551 45.9524 46.6107 46.9843 45.9509C46.7783 47.8542 46.4747 49.7458 46.0747 51.618ZM47.453 36.9938C47.453 38.8664 47.3944 40.737 47.2772 42.6055C45.7572 43.6353 44.1538 44.6405 42.4857 45.6025C40.8207 46.5614 39.1773 47.4432 37.5617 48.2418C35.8617 47.4278 34.1947 46.5501 32.5605 45.6086C30.9366 44.6734 29.3497 43.6774 27.7998 42.6209C27.6559 40.7503 27.584 38.8777 27.584 37.003C27.584 35.1304 27.6539 33.2589 27.7937 31.3883C30.8932 29.2721 34.1482 27.3931 37.5308 25.7674C39.2082 26.5834 40.8557 27.4581 42.4734 28.3913C44.0973 29.3245 45.6904 30.3102 47.2526 31.3482C47.3862 33.227 47.453 35.1089 47.453 36.9938ZM50.4007 21.2904C56.3268 20.1403 60.7915 20.9142 61.9107 22.8536C63.104 24.9195 61.3958 29.4766 57.1192 34.2805C56.8829 34.5456 56.6382 34.8118 56.3854 35.079C54.3025 33.1961 52.0939 31.4572 49.7747 29.8744C49.5412 27.127 49.124 24.3983 48.526 21.7066C49.1632 21.5504 49.7881 21.4117 50.4007 21.2904ZM49.9998 33.2691C51.5648 34.4113 53.0694 35.634 54.5077 36.9321C53.0761 38.2511 51.5766 39.4943 50.0152 40.6568C50.0625 39.4358 50.0862 38.2148 50.0862 36.9938C50.0862 35.7522 50.0574 34.5107 49.9998 33.2691ZM61.9292 51.1185C60.8069 53.0641 56.4779 53.875 50.6658 52.7774C49.9998 52.652 49.3174 52.5019 48.6185 52.3272C49.2021 49.6007 49.6008 46.8379 49.8117 44.0577C52.1268 42.4482 54.3283 40.6814 56.4008 38.7698C56.7647 39.146 57.11 39.5201 57.4368 39.8921C59.2901 41.9073 60.7565 44.2465 61.7627 46.7926C62.0848 47.464 62.2657 48.1943 62.2944 48.9383C62.323 49.6824 62.1987 50.4244 61.9292 51.1185Z" fill="black"/>
</svg>
