<svg width="83" height="82" viewBox="0 0 83 82" fill="none" xmlns="http://www.w3.org/2000/svg">
<g clip-path="url(#clip0_8_2669)">
<path d="M39.1732 56.7491C39.0964 56.8874 39.1348 56.8259 39.1732 56.7491V56.7491ZM71.0918 45.6022C68.5139 45.6022 65.9719 46.1916 63.6605 47.3319C62.9046 45.8072 62.123 44.4747 61.9949 43.4753C61.8411 42.3094 61.6746 41.6175 61.8539 40.2338C62.0333 38.85 62.8405 36.8897 62.8277 36.7488C62.8149 36.6078 62.6483 35.9031 60.9955 35.8903C59.3427 35.8775 57.9205 36.2106 57.7539 36.6463C57.4615 37.4422 57.2344 38.2606 57.0749 39.0934C56.7802 40.5925 53.7718 45.9481 52.0677 48.7413C51.504 47.6522 51.0299 46.6913 50.9274 45.9225C50.7737 44.7566 50.6071 44.0647 50.7865 42.6809C50.9659 41.2972 51.7731 39.3369 51.7602 39.1959C51.7474 39.055 51.5809 38.3503 49.9306 38.3375C48.2804 38.3247 46.8556 38.6578 46.6891 39.0934C46.5225 39.5291 46.3431 40.5541 46.01 41.5406C45.6769 42.5272 41.6666 51.4447 40.6185 53.7638C40.0804 54.9425 39.6191 55.8906 39.286 56.5313C39.2347 56.6338 39.1963 56.6978 39.1707 56.7491C39.2091 56.685 39.2347 56.6209 39.2347 56.6466C38.9529 57.1975 38.7863 57.505 38.7863 57.505V57.5178C38.5685 57.9278 38.3251 58.2994 38.2097 58.2994C38.1329 58.2994 37.9663 57.2231 38.2482 55.7497C38.8504 52.6491 40.2726 47.8316 40.2598 47.665C40.2469 47.5753 40.5288 46.7425 39.3244 46.2941C38.1585 45.8713 37.7357 46.5759 37.6332 46.5759C37.5307 46.5759 37.4538 46.8322 37.4538 46.8322C37.4538 46.8322 38.7479 41.3997 34.9682 41.3997C32.6107 41.3997 29.3307 43.9878 27.7189 46.3325C26.7067 46.8834 24.5158 48.075 22.2095 49.3434L19.5573 50.8041C19.4932 50.74 19.442 50.6759 19.3779 50.6119C14.7911 45.7175 6.32456 42.2581 6.68331 35.6853C6.81144 33.2894 7.64425 26.9984 22.9654 19.3622C35.5217 13.1097 45.559 14.8266 47.2887 18.6447C49.7743 24.09 41.9202 34.2247 28.8822 35.6853C23.911 36.2363 21.2998 34.3144 20.6464 33.5969C19.9673 32.8409 19.8648 32.8025 19.6086 32.9434C19.1857 33.1741 19.4548 33.8403 19.6086 34.2375C19.9929 35.2497 21.5945 37.0434 24.3236 37.9403C26.7195 38.7219 32.5466 39.1575 39.5909 36.4284C47.5065 33.3791 53.6693 24.8844 51.8602 17.7734C50.0203 10.5472 38.0381 8.17688 26.7092 12.2C19.9571 14.5959 12.6565 18.3628 7.40594 23.27C1.16625 29.1125 0.169437 34.1991 0.579437 36.3259C2.04006 43.8725 12.4412 48.7925 16.6027 52.4313L16.0262 52.7516C13.9377 53.7894 6.00937 57.9406 4.02344 62.3225C1.78125 67.2938 4.395 70.8556 6.10931 71.3425C11.4649 72.8288 16.9461 70.1509 19.893 65.7563C22.8399 61.3616 22.4811 55.6216 21.123 53.0078C21.1102 52.9694 21.0846 52.9438 21.0717 52.9053C22.6092 51.9947 24.1597 51.1063 25.7227 50.2403C25.2102 51.6241 24.8386 53.2897 24.6464 55.6984C24.4158 58.5172 25.5818 62.1688 27.0936 63.6038C27.7599 64.2316 28.5645 64.2444 29.0667 64.2444C30.8349 64.2444 31.6292 62.7838 32.5133 61.0413C33.6024 58.9144 34.5633 56.4416 34.5633 56.4416C34.5633 56.4416 33.3589 63.1297 36.6517 63.1297C37.8561 63.1297 39.0605 61.5794 39.5986 60.785V60.7978C39.5986 60.7978 39.6243 60.7466 39.6883 60.6441C39.8164 60.4519 39.8805 60.3366 39.8805 60.3366V60.2981C40.3674 59.4653 41.4308 57.5563 43.0324 54.4044C45.108 50.33 47.0914 45.2434 47.0914 45.2434C47.2836 46.3607 47.5501 47.4651 47.8857 48.5491C48.2445 49.7663 49.0004 51.0988 49.6026 52.3928C49.1157 53.0591 48.8211 53.4434 48.8211 53.4434C48.8211 53.4537 48.8262 53.4614 48.8339 53.4691C48.4495 53.9816 48.0139 54.5325 47.5654 55.0706C45.928 57.0181 43.9779 59.2475 43.7217 59.8881C43.4142 60.6441 43.4911 61.2078 44.0804 61.6434C44.5161 61.9766 45.2848 62.0278 46.092 61.9638C47.5654 61.8613 48.6032 61.5025 49.1029 61.2719C50.0246 60.9417 50.8957 60.4846 51.6911 59.9138C53.2926 58.735 54.2664 57.0438 54.1767 54.8144C54.1254 53.5844 53.7282 52.3544 53.2414 51.2013C53.3823 50.9963 53.5361 50.7784 53.677 50.5606C55.3443 48.0728 56.8466 45.4783 58.1742 42.7937C58.3664 43.9109 58.6303 45.0154 58.9686 46.0993C59.2761 47.1371 59.8782 48.2774 60.4292 49.3921C58.0461 51.3268 56.5726 53.569 56.0627 55.0424C55.1146 57.7715 55.8577 59.0015 57.2542 59.2834C57.8821 59.4115 58.7789 59.1168 59.4452 58.8349C60.4343 58.5044 61.3671 58.0252 62.2101 57.4128C63.8117 56.234 65.362 54.5812 65.2569 52.339C65.2185 51.3268 64.9366 50.3146 64.5651 49.3409C66.5766 48.4953 69.1904 48.034 72.5216 48.4184C79.6556 49.2512 81.0522 53.7099 80.7831 55.5678C80.5141 57.4256 79.015 58.4634 78.5153 58.7709C78.0156 59.0784 77.8619 59.1937 77.9003 59.4243C77.9644 59.7574 78.195 59.7446 78.6178 59.6678C79.2072 59.5653 82.3591 58.1559 82.5 54.7093C82.705 50.3531 78.5153 45.5612 71.0969 45.5996L71.0918 45.6022ZM16.1031 64.1419C13.7456 66.7172 10.4425 67.6909 9.02031 66.8709C7.49562 65.9843 8.09781 62.1944 11.0037 59.4499C12.7718 57.7843 15.0524 56.2468 16.5643 55.2987C16.9102 55.0937 17.4099 54.7862 18.0249 54.4146C18.0749 54.3826 18.1262 54.3527 18.1787 54.3249C18.294 54.2481 18.4221 54.184 18.5503 54.1071C19.6111 58.0021 18.5887 61.4384 16.1031 64.1419ZM33.3179 52.4313C32.4979 54.4428 30.7708 59.5678 29.7176 59.2988C28.8208 59.0681 28.2698 55.1603 29.5382 51.3166C30.1789 49.3819 31.537 47.0756 32.3442 46.1788C33.6382 44.7309 35.0604 44.2697 35.3936 44.8463C35.842 45.6022 33.8304 51.1756 33.3179 52.4313ZM47.5398 59.2219C47.1939 59.4013 46.8736 59.5166 46.7198 59.4269C46.6045 59.3628 46.8607 59.1194 46.8607 59.1194C46.8607 59.1194 48.6417 57.2103 49.3464 56.3391C49.7564 55.8266 50.2304 55.2244 50.7429 54.5581C50.7429 54.6222 50.7557 54.6863 50.7557 54.7631C50.7404 57.0566 48.5392 58.6069 47.5398 59.2219ZM58.5073 56.7234C58.2511 56.5441 58.2895 55.9419 59.1479 54.0713C59.4811 53.3409 60.2498 52.1109 61.5823 50.9322C61.7335 51.3781 61.8155 51.8444 61.8257 52.3159C61.8129 55.1988 59.7501 56.275 58.5073 56.7234Z" fill="black"/>
</g>
<defs>
<clipPath id="clip0_8_2669">
<rect width="82" height="82" fill="white" transform="translate(0.5)"/>
</clipPath>
</defs>
</svg>
