<svg width="75" height="67" viewBox="0 0 75 67" fill="none" xmlns="http://www.w3.org/2000/svg">
<path d="M36.4216 6.03838L29.1911 18.5328C45.5848 29.4174 55.2839 48.273 54.0642 66.7961H35.7879C36.3255 53.8828 31.1736 42.0461 20.0868 34.2349L16.4048 40.6434C24.4216 46.2992 29.1325 55.891 28.5224 66.7556L6.52427 66.7521C0.770948 66.3227 -1.3771 60.912 0.883155 56.6095L5.31226 48.9113L10.0622 51.6444L5.66909 59.2793C5.26597 60.2194 5.41274 61.1569 6.74531 61.2753H22.8551C21.7937 53.3048 17.5682 47.0251 8.99473 42.5402L18.1311 26.638C33.1118 34.414 40.6342 48.8865 41.1734 61.316H48.5007C47.5138 43.9444 37.568 29.0174 21.728 20.4876L31.8035 3.0772C34.6652 -0.935889 40.389 -1.12661 43.2004 3.1125L74.1529 56.6868C76.7603 61.7821 72.9763 66.7365 67.8678 66.7557H61.0368V61.2754L68.0222 61.2775C69.2222 61.3014 69.9054 60.4736 69.3023 59.2386L38.5679 6.0416C38.0221 5.32207 37.0159 5.28501 36.4214 6.03838" fill="black"/>
</svg>
