<svg width="161" height="80" viewBox="0 0 161 80" fill="none" xmlns="http://www.w3.org/2000/svg">
<g clip-path="url(#clip0_8_2696)">
<path d="M108.912 -1L108.408 1.98587C107.629 7.64452 107.911 9.26345 110.046 11.3635L112.107 13.3032L109.972 24.1317C108.697 30.5922 107.133 36.0065 106.139 37.7858C105.286 39.3207 104.293 41.5811 104.078 42.7953C103.722 44.2463 102.514 45.7048 100.668 46.9954C99.0362 48.0493 95.8339 50.8748 93.5648 53.1428C91.7522 54.9985 90.5035 56.1363 89.8254 56.625L87.61 58.6182C87.0403 59.5792 86.6117 60.6392 86.3411 61.7568C86.1867 62.5739 86.274 63.1161 86.5023 63.5132C86.7238 63.895 87.1065 64.1623 87.6301 64.3303C88.25 64.4955 88.8881 64.5547 89.5233 64.5059C90.9604 64.3942 92.3828 64.1075 93.7662 63.6506C94.2361 63.5055 94.6053 63.3681 94.9276 63.2459C95.4244 62.551 96.5724 61.2375 98.6065 58.9542C104.004 52.8984 106.065 49.5842 103.937 50.4777C103.152 50.7984 103.507 49.9889 104.857 48.37C107.703 45.2161 109.335 40.4509 112.745 25.5063C115.444 13.7079 115.444 13.5399 117.431 13.5399C118.364 13.5399 121.002 13.7232 121.002 13.7232V-1H114.947H108.912ZM134.684 23.1695C134.255 23.1695 133.543 23.9026 133.12 24.7121C132.341 26.163 133.261 27.0489 144.983 35.3727C151.945 40.3898 157.557 44.6663 157.416 44.9946C157.275 45.2314 151.589 49.4391 144.775 54.2883C132.409 63.0092 132.341 63.0932 133.476 64.8725C134.899 66.9725 133.476 67.698 149.528 56.3043L161.182 47.8202V41.436L148.178 32.3028C141.149 27.2932 135.04 23.2535 134.684 23.1695ZM26.6992 24.063C26.3434 24.063 20.2342 28.1867 13.2053 33.1123L0.0604248 42.2455V48.6296L13.1314 57.9232C20.3819 63.0092 26.4911 67.2169 26.7731 67.2169C27.055 67.2169 27.6257 66.4838 28.1963 65.5979C29.0489 64.063 28.3306 63.4139 16.327 54.7694C4.89408 46.6059 3.68566 45.4758 4.82694 44.5899C5.53857 44.0248 10.9361 40.2218 16.7634 36.1058C30.0492 26.8121 29.3376 27.4536 28.2702 25.5139C27.8472 24.7121 27.1289 23.9866 26.7059 24.063H26.6992ZM84.9985 24.2386C83.0381 24.2234 78.8221 27.6216 66.2009 39.3436C65.6571 40.8175 65.6101 41.8331 65.8585 42.4899C66.0197 42.9404 66.315 43.2535 66.7246 43.4826C67.1274 43.7117 67.651 43.8492 68.2284 43.9026C69.3764 44.0172 70.7325 43.811 71.8268 43.5666L72.5652 43.3757C72.818 42.9901 73.1499 42.6808 73.532 42.4746C74.3107 41.9859 77.5801 38.5953 80.8496 34.9603C86.603 28.3318 87.9524 25.3383 85.6094 24.3685C85.4172 24.2815 85.2053 24.2374 84.9985 24.2386ZM99.7411 28.8434C98.0158 28.8969 94.9075 31.1726 89.5837 36.0065C86.9118 38.4731 85.22 39.8018 84.3137 40.0767L80.7959 43.2383C79.4733 45.9874 79.2786 47.6903 79.6277 48.6296C79.7151 48.8613 79.842 49.071 80.001 49.2467C80.16 49.4223 80.348 49.5604 80.5542 49.6529C81.0671 49.8833 81.614 49.9999 82.1654 49.9966C83.4831 49.9806 84.7929 49.7622 86.0592 49.3475C86.7191 49.146 87.371 48.9116 88.0128 48.6449L88.2075 48.5533L88.5633 48.3394C89.2346 47.3543 90.7787 45.4987 92.7122 43.3604C98.8214 36.6556 101.943 31.8904 101.305 30.1111C101.017 29.2482 100.52 28.8129 99.7411 28.8434ZM83.4678 37.0909C82.971 37.152 81.8566 38.1294 79.8493 40.1302C76.9491 43.0473 73.7871 44.7274 72.6928 43.979C72.4385 44.0443 72.1833 44.1054 71.9275 44.1623C70.813 44.4143 69.4234 44.6205 68.1814 44.5059C67.5962 44.4656 67.0226 44.3025 66.4896 44.0248C65.9868 43.7634 65.5856 43.3015 65.3617 42.7266C65.1133 42.0393 65.1133 41.184 65.3953 40.092L61.0316 44.1699L51.1562 53.4635V68.5303L83.5148 39.5345C83.5085 39.2171 83.5447 38.9003 83.6222 38.5953C83.8706 37.572 83.8572 37.0527 83.4678 37.0985V37.0909ZM97.3914 41.9706C96.9013 41.9706 96.0823 42.7572 94.7732 44.3379C92.9941 46.499 90.1946 48.5914 88.711 49.0191L88.4827 49.1565C88.2391 49.271 87.9929 49.3779 87.7442 49.4773C87.3414 49.63 86.8178 49.8133 86.2136 49.9966C85.0052 50.3707 83.5014 50.7144 82.1587 50.6762C81.5257 50.6753 80.8988 50.5353 80.3125 50.2638C79.7599 50.0047 79.3171 49.512 79.0772 48.8893C78.6879 47.8278 78.8423 46.3387 79.6949 44.2234L51.1495 69.798V79H63.6901L90.2886 55.2352C90.9801 54.3646 92.0207 53.1733 93.4238 51.6842C97.1833 47.7209 98.0359 46.3539 98.0359 44.3303C98.0359 42.7572 97.8815 41.963 97.3914 41.963V41.9706ZM103.722 56.8618L101.446 59.4429C100.171 60.8175 97.8949 62.5128 96.3374 63.2383L96.0286 63.391L96.0085 63.4292L95.9413 63.5055C95.8809 63.559 95.854 63.5666 95.8071 63.5895C95.1853 63.8572 94.5536 64.0942 93.9139 64.2997C92.4914 64.7707 91.0283 65.0652 89.5502 65.1779C88.8513 65.2289 88.1496 65.1594 87.469 64.9717C86.8783 64.8238 86.3569 64.432 86.0055 63.8721C85.6832 63.307 85.5892 62.551 85.7705 61.6193C85.9147 60.956 86.1288 60.315 86.4083 59.7102L64.9455 79H93.4909L96.9013 74.5555C101.587 68.3394 103.722 63.895 103.722 60.092V56.8618Z" fill="black"/>
</g>
<defs>
<clipPath id="clip0_8_2696">
<rect width="160.879" height="80" fill="white" transform="translate(0.0604248)"/>
</clipPath>
</defs>
</svg>
