<svg width="83" height="82" viewBox="0 0 83 82" fill="none" xmlns="http://www.w3.org/2000/svg">
<path d="M41.5 20.5C32.3775 20.5 26.7058 25.0442 24.4167 34.1667C27.8333 29.6225 31.8308 27.9142 36.375 29.0417C38.9717 29.6908 40.8508 31.57 42.9008 33.6542C46.2492 37.0708 50.0417 41 58.5833 41C67.7058 41 73.3775 36.4558 75.6667 27.3333C72.25 31.8775 68.2525 33.5858 63.7083 32.4583C61.1117 31.8092 59.2667 29.93 57.1825 27.8458C53.8342 24.4292 50.0417 20.5 41.5 20.5ZM24.4167 41C15.2942 41 9.6225 45.5442 7.33333 54.6667C10.75 50.1225 14.7475 48.4142 19.2917 49.5417C21.8883 50.1908 23.7333 52.07 25.8175 54.1542C29.1658 57.5708 32.9583 61.5 41.5 61.5C50.6225 61.5 56.2942 56.9558 58.5833 47.8333C55.1667 52.3775 51.1692 54.0858 46.625 52.9583C44.0283 52.3092 42.1833 50.43 40.0992 48.3458C36.7508 44.9292 32.9583 41 24.4167 41Z" fill="black"/>
</svg>
