<svg width="81" height="80" viewBox="0 0 81 80" fill="none" xmlns="http://www.w3.org/2000/svg">
<path d="M64.6333 10H16.3667C14.8107 10 13.3185 10.6181 12.2183 11.7183C11.1181 12.8185 10.5 14.3107 10.5 15.8667V64.1333C10.5 65.6893 11.1181 67.1815 12.2183 68.2817C13.3185 69.3819 14.8107 70 16.3667 70H64.6333C65.4038 70 66.1666 69.8483 66.8784 69.5534C67.5902 69.2586 68.2369 68.8265 68.7817 68.2817C69.3265 67.7369 69.7586 67.0902 70.0534 66.3784C70.3483 65.6666 70.5 64.9038 70.5 64.1333V15.8667C70.5 15.0962 70.3483 14.3334 70.0534 13.6216C69.7586 12.9098 69.3265 12.2631 68.7817 11.7183C68.2369 11.1735 67.5902 10.7414 66.8784 10.4466C66.1666 10.1517 65.4038 10 64.6333 10ZM45.3 43.3333H37.8V64.8H31.8333V43.3333H24.3333V38.4667H45.3V43.3333ZM64.6333 60.9333C64.1508 61.9594 63.3732 62.8182 62.4 63.4C61.3761 64.0302 60.2469 64.4706 59.0667 64.7C57.7508 64.9717 56.4103 65.1058 55.0667 65.1C53.6919 65.0988 52.3199 64.9761 50.9667 64.7333C49.8165 64.4978 48.6978 64.1286 47.6333 63.6333V57.9333L47.4333 57.7333H47.6333V57.9667C48.6359 58.7489 49.7627 59.3573 50.9667 59.7667C52.1689 60.2244 53.447 60.4506 54.7333 60.4333C55.4055 60.4451 56.0768 60.3779 56.7333 60.2333C57.2265 60.1179 57.6988 59.9268 58.1333 59.6667C58.4736 59.4593 58.7593 59.1735 58.9667 58.8333C59.1719 58.4459 59.2621 58.0078 59.2267 57.5708C59.1913 57.1338 59.0317 56.716 58.7667 56.3667C58.4533 55.9274 58.057 55.5537 57.6 55.2667C57.0451 54.8765 56.4534 54.5416 55.8333 54.2667L53.6 53.3333C51.8321 52.6052 50.2657 51.4618 49.0333 50C48.002 48.7568 47.4571 47.1814 47.5 45.5667C47.4612 44.34 47.7365 43.1237 48.3 42.0333C48.8377 41.0829 49.5913 40.2722 50.5 39.6667C51.5124 38.9931 52.6436 38.518 53.8333 38.2667C55.134 37.9673 56.4654 37.8219 57.8 37.8333C59.0153 37.8164 60.2301 37.8944 61.4333 38.0667C62.4344 38.2232 63.4171 38.48 64.3667 38.8333V44.3333C63.9279 44.0206 63.4589 43.7526 62.9667 43.5333C62.4366 43.3052 61.8908 43.1158 61.3333 42.9667C60.7991 42.8103 60.2528 42.6988 59.7 42.6333C59.19 42.5852 58.6766 42.5852 58.1667 42.6333C57.5386 42.6229 56.9116 42.6901 56.3 42.8333C55.7983 42.9385 55.3151 43.1183 54.8667 43.3667C54.5166 43.5729 54.2198 43.8583 54 44.2C53.8005 44.532 53.6966 44.9127 53.7 45.3C53.6919 45.7135 53.808 46.1199 54.0333 46.4667C54.3071 46.8453 54.6457 47.1725 55.0333 47.4333C55.5033 47.8075 56.0185 48.121 56.5667 48.3667L58.6667 49.3C59.6323 49.6992 60.568 50.167 61.4667 50.7C62.2569 51.1325 62.9763 51.6833 63.6 52.3333C64.2111 52.9255 64.6884 53.6415 65 54.4333C65.3197 55.3433 65.4776 56.3022 65.4667 57.2667C65.4428 58.5116 65.159 59.7379 64.6333 60.8667V60.9333Z" fill="black"/>
</svg>
