<svg width="83" height="82" viewBox="0 0 83 82" fill="none" xmlns="http://www.w3.org/2000/svg">
<g clip-path="url(#clip0_8_2731)">
<path d="M47.445 3.59778C47.2628 3.59746 47.0817 3.6263 46.9086 3.6832C46.5625 3.80044 46.2631 4.02558 46.0545 4.32553L26.4496 32.6702C26.2939 32.8973 26.1955 33.1587 26.1626 33.4321C26.1336 33.7058 26.1711 33.9824 26.272 34.2384C26.3759 34.4936 26.54 34.7198 26.7503 34.8979C26.9625 35.0751 27.2146 35.1982 27.4849 35.2566L40.1505 37.9421L39.3646 53.5905C39.3497 53.9543 39.4514 54.3135 39.655 54.6154C39.8632 54.9167 40.1626 55.143 40.5092 55.2612C40.8565 55.3756 41.2313 55.3756 41.5786 55.2612C41.9242 55.1449 42.2236 54.921 42.4328 54.6223L62.0376 26.2776C62.1933 26.0505 62.2918 25.7891 62.3246 25.5157C62.3536 25.242 62.3161 24.9654 62.2153 24.7094C62.1118 24.453 61.9477 24.2255 61.737 24.0465C61.5244 23.8705 61.2723 23.7486 61.0024 23.6912L48.3368 21.0023L49.1226 5.35395C49.1375 4.99006 49.0358 4.63092 48.8322 4.32895C48.6235 4.02899 48.3241 3.80386 47.978 3.68661C47.8062 3.62891 47.6263 3.59893 47.445 3.59778ZM4.45312 33.4424C3.4042 33.4458 2.40312 33.866 1.6617 34.604C0.920835 35.3444 0.503188 36.348 0.500034 37.3954C0.495029 38.4435 0.905342 39.4508 1.6412 40.1971L38.6847 77.2406C39.0554 77.6069 39.4926 77.8991 39.9728 78.1016C40.4559 78.2976 40.9719 78.3996 41.4932 78.4023H41.5069C42.0282 78.3996 42.5442 78.2976 43.0273 78.1016C43.5075 77.8991 43.9446 77.6069 44.3154 77.2406L81.3589 40.1937C82.0947 39.4474 82.505 38.4401 82.5 37.392C82.496 36.3458 82.0784 35.3436 81.3384 34.604C80.5979 33.8632 79.5944 33.4455 78.547 33.4424C77.4989 33.4374 76.4916 33.8477 75.7453 34.5835L57.2953 53.0335L57.2065 53.1019L41.5 68.8117L25.7902 53.1053L25.7082 53.0369L7.25478 34.5835C6.50851 33.8477 5.50116 33.4374 4.45312 33.4424Z" fill="black"/>
</g>
<defs>
<clipPath id="clip0_8_2731">
<rect width="82" height="82" fill="white" transform="translate(0.5)"/>
</clipPath>
</defs>
</svg>
